<svg width="152" height="144" viewBox="0 0 152 144" fill="none" xmlns="http://www.w3.org/2000/svg">
<g filter="url(#filter0_d_1_1773)">
<mask id="mask0_1_1773" style="mask-type:luminance" maskUnits="userSpaceOnUse" x="40" y="40" width="72" height="64">
<path d="M100.136 42.2963C99.3179 41.4203 98.1095 40.9154 96.8347 40.9154H75.8903H54.9416C53.6668 40.9154 52.4585 41.4203 51.6405 42.2963L41.7413 52.9203C40.5246 54.2269 40.4125 56.0941 41.4672 57.5084L75.8903 103.612V103.616V103.612L110.313 57.5084C111.368 56.0941 111.26 54.2269 110.039 52.9203L100.136 42.2963Z" fill="white"/>
</mask>
<g mask="url(#mask0_1_1773)">
<path d="M39.6858 55.125L75.8902 103.619V55.125H39.6858Z" fill="#FF449E"/>
<path d="M39.6858 55.1252L52.9318 40.9153L63.4041 55.1252H39.6858Z" fill="#B50057"/>
<path d="M75.8902 55.1251V40.9153L63.4041 55.1251H75.8902Z" fill="#FF449E"/>
<path d="M52.9316 40.9153H75.89L63.4039 55.1251L52.9316 40.9153Z" fill="#EF127C"/>
<path d="M112.098 55.125L75.8899 103.619V55.125H112.098Z" fill="#B50057"/>
<path d="M88.3805 55.125L75.8902 103.619L63.3999 55.125H88.3805Z" fill="#EF127C"/>
<path d="M112.098 55.1251L98.8519 40.9153L88.3796 55.1251H112.098Z" fill="#EF127C"/>
<path d="M75.8899 55.1251V40.9153L88.3802 55.1251H75.8899Z" fill="#FF449E"/>
<path d="M98.8524 40.9153H75.8899L88.3802 55.1251L98.8524 40.9153Z" fill="#B50057"/>
</g>
</g>
<defs>
<filter id="filter0_d_1_1773" x="0.746338" y="0.915436" width="150.289" height="142.701" filterUnits="userSpaceOnUse" color-interpolation-filters="sRGB">
<feFlood flood-opacity="0" result="BackgroundImageFix"/>
<feColorMatrix in="SourceAlpha" type="matrix" values="0 0 0 0 0 0 0 0 0 0 0 0 0 0 0 0 0 0 127 0" result="hardAlpha"/>
<feOffset/>
<feGaussianBlur stdDeviation="20"/>
<feComposite in2="hardAlpha" operator="out"/>
<feColorMatrix type="matrix" values="0 0 0 0 0.937255 0 0 0 0 0.0705882 0 0 0 0 0.486588 0 0 0 0.6 0"/>
<feBlend mode="normal" in2="BackgroundImageFix" result="effect1_dropShadow_1_1773"/>
<feBlend mode="normal" in="SourceGraphic" in2="effect1_dropShadow_1_1773" result="shape"/>
</filter>
</defs>
</svg>
