<svg width="46" height="166" viewBox="0 0 46 166" fill="none" xmlns="http://www.w3.org/2000/svg">
<path d="M33.532 120.407H0.0444336V157.563H33.532V120.407Z" fill="#2D293E"/>
<path d="M14.3454 112.035H43.3622C44.455 112.035 45.3414 112.921 45.3414 114.014V163.473C45.3414 164.566 44.455 165.452 43.3622 165.452H14.3454C13.2527 165.452 12.3662 164.566 12.3662 163.473V114.014C12.3685 112.921 13.2549 112.035 14.3454 112.035Z" fill="url(#paint0_linear_1_3944)"/>
<path d="M32.1129 19.0503H27.5378C26.0801 19.0503 24.8989 20.2314 24.8989 21.6891V119.853C24.8989 121.311 26.0801 122.492 27.5378 122.492H32.1129C33.5706 122.492 34.7518 121.311 34.7518 119.853V21.6891C34.7495 20.2314 33.5684 19.0503 32.1129 19.0503Z" fill="#CE0D6A"/>
<path fill-rule="evenodd" clip-rule="evenodd" d="M29.655 33.3588C38.6545 33.3588 46.0004 26.0185 46.0004 17.0098C46.0004 8.00833 38.6545 0.667969 29.655 0.667969C20.6554 0.667969 13.3096 8.00833 13.3096 17.0169C13.3096 26.0185 20.6554 33.3588 29.655 33.3588Z" fill="#403B56"/>
<path fill-rule="evenodd" clip-rule="evenodd" d="M26.9149 1.84619C32.4864 1.84619 36.1274 6.36825 35.0415 11.941C33.9556 17.5137 28.5545 22.0357 22.983 22.0357C17.4115 22.0357 13.7705 17.5137 14.8564 11.941C15.9423 6.36825 21.3363 1.84619 26.9149 1.84619Z" fill="#5B5479"/>
<path fill-rule="evenodd" clip-rule="evenodd" d="M43.253 7.94482C44.9848 10.5431 45.9997 13.6595 45.9997 17.0102C45.9997 26.0402 38.6822 33.3592 29.6542 33.3592C22.9046 33.3592 17.113 29.2631 14.6147 23.4277C17.546 27.8149 22.5426 30.7113 28.2135 30.7113C37.2414 30.7113 44.5589 23.3922 44.5589 14.3623C44.5589 12.0835 44.0976 9.91834 43.253 7.94482Z" fill="#2D293E"/>
<path fill-rule="evenodd" clip-rule="evenodd" d="M33.488 3.18839C35.8444 4.62239 36.9587 7.08573 35.9792 8.69011C34.9998 10.2945 32.3028 10.4365 29.9464 9.00246C27.5901 7.56847 26.4828 5.10512 27.4552 3.50075C28.4346 1.89637 31.1388 1.76149 33.488 3.18839ZM37.4768 9.74076C36.1141 9.74076 35.234 11.1748 35.5037 12.9424C35.7734 14.71 37.1006 16.144 38.4634 16.144C39.8261 16.144 40.7062 14.71 40.4365 12.9424C40.1597 11.1748 38.8325 9.74076 37.4768 9.74076Z" fill="#928BAF"/>
<defs>
<linearGradient id="paint0_linear_1_3944" x1="28.8553" y1="165.452" x2="28.8553" y2="112.035" gradientUnits="userSpaceOnUse">
<stop stop-color="#A80553"/>
<stop offset="0.052" stop-color="#A80553"/>
<stop offset="0.0722" stop-color="#BC075E"/>
<stop offset="0.0969" stop-color="#D90B6E"/>
<stop offset="0.1419" stop-color="#DA0B6E"/>
<stop offset="0.4565" stop-color="#EF127C"/>
<stop offset="0.5126" stop-color="#FF3C99"/>
<stop offset="0.5688" stop-color="#FF3C99"/>
<stop offset="0.6051" stop-color="#FF63AE"/>
<stop offset="0.6194" stop-color="#FF74B7"/>
<stop offset="0.6611" stop-color="#FF419C"/>
<stop offset="0.6647" stop-color="#FF3C99"/>
<stop offset="0.6777" stop-color="#FD3695"/>
<stop offset="0.6955" stop-color="#F62489"/>
<stop offset="0.7093" stop-color="#EF127C"/>
<stop offset="0.8385" stop-color="#EF127C"/>
<stop offset="0.9003" stop-color="#EC117A"/>
<stop offset="0.9789" stop-color="#C50B6E"/>
<stop offset="1" stop-color="#C50B6E"/>
</linearGradient>
</defs>
</svg>
