<svg width="137" height="107" viewBox="0 0 137 107" fill="none" xmlns="http://www.w3.org/2000/svg">
<g filter="url(#filter0_d_1_1787)">
<path d="M106.423 66.5851C105.756 63.6843 103.595 61.4931 101.249 60.2382C101.064 60.1369 100.875 60.05 100.685 59.9583C101.512 57.434 101.595 54.5864 101.157 51.9704C101.025 51.1837 100.845 50.4163 100.626 49.6875C99.3269 45.3581 96.1292 41.8975 92.3182 39.5374C89.1254 37.5633 85.514 36.3036 81.8345 35.5748C79.7319 35.1598 77.5903 34.9184 75.4488 34.8316C74.709 34.8026 68.9123 35.3287 68.7225 35.0294C67.1066 32.4714 64.1425 31.0814 59.3776 32.4859C56.4573 28.9625 52.0915 30.314 49.9743 31.2213C49.9159 31.2503 49.8575 31.2744 49.7943 31.3082C49.731 31.3372 49.6726 31.3613 49.6142 31.3951C47.5359 32.4087 43.6325 34.846 44.494 39.3781C44.7276 40.6089 45.2484 41.579 45.9152 42.3609C37.242 47.3997 32.7934 53.4329 30.8612 56.7052C30.0581 58.0711 30.4718 59.8135 31.7957 60.6919C36.4924 63.7953 48.816 70.3739 68.8344 70.2773C74.9426 70.2484 81.1482 70.0746 87.1639 68.9404C90.8143 68.255 94.7274 67.1884 97.599 64.7269C98.368 64.0705 98.9959 63.303 99.5167 62.4681C99.6286 62.5308 99.7406 62.5887 99.8476 62.6515C100.772 63.2162 101.605 63.8533 102.237 64.64C102.89 65.4122 103.371 66.3099 103.566 67.2173C104.033 69.0273 103.172 70.7938 101.502 72.0293C99.8428 73.2746 97.6039 73.9792 95.3845 74.2061C94.2748 74.3171 93.1213 74.2833 91.958 74.182C90.7948 74.0758 89.6267 73.8924 88.4537 73.6752C86.1029 73.2504 83.7278 72.6713 81.2845 72.2948C78.8314 71.9232 76.3054 71.8459 73.8475 72.261C72.621 72.4734 71.4091 72.8112 70.2799 73.3421C69.1556 73.8731 68.1141 74.6019 67.2964 75.5285C67.2477 75.5865 67.2477 75.6733 67.3013 75.7264C67.3597 75.7844 67.4521 75.7844 67.5057 75.7313C68.372 74.9156 69.4136 74.3171 70.5184 73.9117C71.6233 73.4966 72.7914 73.2601 73.9643 73.1491C76.3249 72.9319 78.7049 73.1877 81.0119 73.7234C83.3433 74.2399 85.6454 74.9638 88.04 75.5623C90.4395 76.1367 92.912 76.6242 95.5451 76.5276C96.8495 76.4697 98.1441 76.2718 99.4145 75.9098C100.685 75.543 101.936 75.0266 103.089 74.2495C104.228 73.4676 105.289 72.3962 105.946 71.0254C106.623 69.6595 106.749 68.0185 106.423 66.5851ZM44.3431 48.0948C45.5355 48.0948 46.5041 49.0552 46.5041 50.2377C46.5041 51.4202 45.5355 52.3807 44.3431 52.3807C43.1507 52.3807 42.1821 51.4202 42.1821 50.2377C42.1821 49.0552 43.1507 48.0948 44.3431 48.0948ZM51.634 61.773C51.5464 62.0095 51.2836 62.135 51.0451 62.0482L42.4887 58.9737C42.2454 58.8868 42.1237 58.6262 42.2113 58.3848C42.2794 58.2014 42.4547 58.0856 42.6445 58.0856C42.698 58.0856 42.7515 58.0953 42.8051 58.1146L51.3566 61.1842C51.6 61.2711 51.7216 61.5317 51.634 61.773ZM51.8579 56.3963L42.7613 56.2998C42.5033 56.295 42.2989 56.0923 42.3038 55.8365C42.3038 55.5855 42.5082 55.3828 42.7613 55.3828C42.7662 55.3828 42.7661 55.3828 42.771 55.3828L51.8676 55.4793C52.1256 55.4793 52.33 55.6868 52.3252 55.9426C52.3252 56.1936 52.1159 56.3963 51.8579 56.3963Z" fill="url(#paint0_linear_1_1787)"/>
</g>
<defs>
<filter id="filter0_d_1_1787" x="0.451904" y="0.191925" width="136.143" height="106.348" filterUnits="userSpaceOnUse" color-interpolation-filters="sRGB">
<feFlood flood-opacity="0" result="BackgroundImageFix"/>
<feColorMatrix in="SourceAlpha" type="matrix" values="0 0 0 0 0 0 0 0 0 0 0 0 0 0 0 0 0 0 127 0" result="hardAlpha"/>
<feOffset/>
<feGaussianBlur stdDeviation="15"/>
<feComposite in2="hardAlpha" operator="out"/>
<feColorMatrix type="matrix" values="0 0 0 0 0.937255 0 0 0 0 0.0705882 0 0 0 0 0.486588 0 0 0 0.4 0"/>
<feBlend mode="normal" in2="BackgroundImageFix" result="effect1_dropShadow_1_1787"/>
<feBlend mode="normal" in="SourceGraphic" in2="effect1_dropShadow_1_1787" result="shape"/>
</filter>
<linearGradient id="paint0_linear_1_1787" x1="68.5241" y1="29.526" x2="68.5241" y2="77.8976" gradientUnits="userSpaceOnUse">
<stop stop-color="#FF368E"/>
<stop offset="0.0698" stop-color="#FB2E8A"/>
<stop offset="0.2814" stop-color="#F21980"/>
<stop offset="0.4231" stop-color="#EF127C"/>
<stop offset="0.5265" stop-color="#E9117C"/>
<stop offset="0.6679" stop-color="#D7107A"/>
<stop offset="0.8312" stop-color="#BA0D78"/>
<stop offset="1" stop-color="#950A75"/>
</linearGradient>
</defs>
</svg>
