<svg width="141" height="98" viewBox="0 0 141 98" fill="none" xmlns="http://www.w3.org/2000/svg">
<g filter="url(#filter0_d_1_1772)">
<path d="M91.5818 30.1578H49.5176C39.3194 30.1578 30.8198 38.2999 30.6876 48.5312C30.5554 58.9292 38.9126 67.4014 49.243 67.4014C55.4372 67.4014 60.9194 64.3528 64.2894 59.671C64.937 58.7693 65.9711 58.2351 67.0763 58.2351H73.7452C74.8572 58.2351 75.8946 58.7795 76.5456 59.6812C80.1123 64.6284 86.0386 67.7485 92.6702 67.3708C102.129 66.8298 109.734 59.0619 110.124 49.5622C110.558 38.9226 102.089 30.1578 91.5818 30.1578ZM58.0071 51.2294H51.6943V57.5648H46.8121V51.2294H40.4993V46.3298H46.8121V39.9944H51.6943V46.3298H58.0071V51.2294ZM83.2517 51.9371C81.5091 51.9371 80.0953 50.5183 80.0953 48.7694C80.0953 47.0205 81.5091 45.6017 83.2517 45.6017C84.9944 45.6017 86.4082 47.0205 86.4082 48.7694C86.4082 50.5183 84.9944 51.9371 83.2517 51.9371ZM91.5818 60.3004C89.8392 60.3004 88.4254 58.8816 88.4254 57.1327C88.4254 55.3838 89.8392 53.965 91.5818 53.965C93.3279 53.965 94.7383 55.3838 94.7383 57.1327C94.7383 58.8816 93.3279 60.3004 91.5818 60.3004ZM91.5818 43.5942C89.8392 43.5942 88.4254 42.1754 88.4254 40.4265C88.4254 38.6776 89.8392 37.2588 91.5818 37.2588C93.3279 37.2588 94.7383 38.6776 94.7383 40.4265C94.7383 42.1754 93.3279 43.5942 91.5818 43.5942ZM99.9154 51.9371C98.1727 51.9371 96.7589 50.5183 96.7589 48.7694C96.7589 47.0205 98.1727 45.6017 99.9154 45.6017C101.658 45.6017 103.072 47.0205 103.072 48.7694C103.072 50.5183 101.658 51.9371 99.9154 51.9371Z" fill="url(#paint0_linear_1_1772)"/>
</g>
<defs>
<filter id="filter0_d_1_1772" x="0.686035" y="0.157776" width="139.454" height="97.2439" filterUnits="userSpaceOnUse" color-interpolation-filters="sRGB">
<feFlood flood-opacity="0" result="BackgroundImageFix"/>
<feColorMatrix in="SourceAlpha" type="matrix" values="0 0 0 0 0 0 0 0 0 0 0 0 0 0 0 0 0 0 127 0" result="hardAlpha"/>
<feOffset/>
<feGaussianBlur stdDeviation="15"/>
<feComposite in2="hardAlpha" operator="out"/>
<feColorMatrix type="matrix" values="0 0 0 0 0.554236 0 0 0 0 0.0399306 0 0 0 0 0.958333 0 0 0 0.4 0"/>
<feBlend mode="normal" in2="BackgroundImageFix" result="effect1_dropShadow_1_1772"/>
<feBlend mode="normal" in="SourceGraphic" in2="effect1_dropShadow_1_1772" result="shape"/>
</filter>
<linearGradient id="paint0_linear_1_1772" x1="70.4129" y1="16.9155" x2="70.4129" y2="76.5057" gradientUnits="userSpaceOnUse">
<stop offset="0.125" stop-color="#C173FF"/>
<stop offset="0.59375" stop-color="#8D0AF4"/>
<stop offset="1" stop-color="#6E12B7"/>
</linearGradient>
</defs>
</svg>
