<svg width="24" height="24" viewBox="0 0 24 24" fill="none" xmlns="http://www.w3.org/2000/svg">
<g clip-path="url(#clip0_1_2340)">
<path d="M4 4H20C21.11 4 21.99 4.89 21.99 6L22 18C22 19.11 21.11 20 20 20H10V18H20V12H2V6C2 4.89 2.89 4 4 4ZM4 8H20V6H4V8Z" fill="#F8CD4A"/>
<path d="M0.2 18.5306C0.0895428 18.5306 -1.11854e-07 18.4411 -1.16683e-07 18.3306L-2.33008e-07 15.6694C-2.37837e-07 15.5589 0.0895428 15.4694 0.2 15.4694L4.54545 15.4694L4.54545 13.4484C4.54545 13.2753 4.75032 13.184 4.87908 13.2996L8.83428 16.8512C8.92278 16.9307 8.92278 17.0693 8.83428 17.1488L4.87908 20.7004C4.75032 20.816 4.54545 20.7247 4.54545 20.5516L4.54545 18.5306L0.2 18.5306Z" fill="#F8CD4A"/>
</g>
<defs>
<clipPath id="clip0_1_2340">
<rect width="24" height="24" fill="white" transform="matrix(-1 0 0 1 24 0)"/>
</clipPath>
</defs>
</svg>
