<svg width="106" height="104" viewBox="0 0 106 104" fill="none" xmlns="http://www.w3.org/2000/svg">
<mask id="mask0_1_1745" style="mask-type:alpha" maskUnits="userSpaceOnUse" x="0" y="0" width="106" height="104">
<path d="M101.969 43.7137C101.804 44.1665 101.786 44.7851 101.951 45.2335C103.678 50.0125 104.322 54.9216 104.17 60.1042C104.148 60.956 104.103 61.8168 104.036 62.6821C104.036 62.6955 104.031 62.709 104.031 62.7224C103.665 66.291 102.367 73.0875 97.7961 80.3324C87.0161 95.9698 71.5932 103.367 52.3906 103.313C32.2218 103.259 16.2397 95.0238 5.4598 77.4587C5.45533 77.4542 5.45533 77.4497 5.45085 77.4452C1.49672 69.1782 1.01363 62.2337 0.959957 61.1981C0.955484 61.1084 0.955484 61.0636 0.955484 61.0636C0.669211 55.7824 1.33122 50.6402 2.98176 45.6056C3.25461 44.7851 3.0399 43.7181 2.79389 42.835C-0.229863 31.8601 -0.990274 20.7866 1.51461 9.62346C1.96638 7.62395 2.86098 5.64686 3.91214 3.876C5.91605 0.482224 9.15898 -0.750654 12.9431 0.446358C14.9023 1.06504 16.9331 1.89443 18.5344 3.14524C21.8713 5.74998 24.9979 8.63715 28.1111 11.5198C29.8511 13.1338 31.3943 14.9674 33.2014 16.8862C46.03 12.6451 58.9256 12.6048 71.8884 16.8952C73.7447 14.9316 75.5339 13.0441 77.3186 11.1522C80.4587 7.83914 83.7419 4.68298 87.7094 2.37413C89.1766 1.52232 90.7824 0.818463 92.4061 0.352211C95.8279 -0.634091 98.7443 0.482224 100.869 3.33802C102.654 5.73653 103.472 8.52956 104.058 11.3943C105.302 17.4511 105.23 23.5752 104.72 29.6902C104.322 34.4559 103.656 39.1901 101.969 43.7137Z" fill="#EF127C"/>
</mask>
<g mask="url(#mask0_1_1745)">
<rect x="-17.4014" y="-3.48254" width="139.299" height="64.7161" fill="#EF127C"/>
</g>
</svg>
