<svg width="28" height="28" viewBox="0 0 28 28" fill="none" xmlns="http://www.w3.org/2000/svg">
<circle cx="14" cy="14" r="13.5" fill="#0A0527" stroke="url(#paint0_linear_1_1677)"/>
<path d="M18.7806 20.0001L6.25683 19.9966C6.03058 20 5.91571 19.7249 6.07583 19.5721L8.55418 17.158C8.64816 17.0663 8.78035 17.0086 8.9161 17.0086H21.4365C21.6662 17.0086 21.7776 17.2802 21.6174 17.4363L19.1392 19.8505C19.0452 19.9456 18.9164 19.9967 18.7806 20.0001ZM8.55418 15.338L6.07583 12.9272C5.91571 12.7676 6.0271 12.5027 6.25683 12.5027H18.7806C18.9164 12.5027 19.0452 12.5537 19.1392 12.6521L21.6174 15.0595C21.7776 15.2157 21.6662 15.484 21.4365 15.4806H8.91262C8.78035 15.484 8.64816 15.4331 8.55418 15.338ZM6.07583 10.5571L8.55418 8.14627C8.65164 8.05459 8.77687 7.99681 8.91262 8.0002H21.4365C21.6662 7.99681 21.7776 8.27184 21.6174 8.42464L19.1392 10.839C19.0452 10.934 18.9164 10.9849 18.7806 10.9849H6.25683C6.03058 10.9849 5.91571 10.7133 6.07583 10.5571Z" fill="url(#paint1_linear_1_1677)"/>
<defs>
<linearGradient id="paint0_linear_1_1677" x1="20.2636" y1="24.2046" x2="4.79284" y2="7.98414" gradientUnits="userSpaceOnUse">
<stop stop-color="#24F0AA"/>
<stop offset="1" stop-color="#7A6CDA"/>
</linearGradient>
<linearGradient id="paint1_linear_1_1677" x1="17.357" y1="9.62667" x2="11.0366" y2="18.2923" gradientUnits="userSpaceOnUse">
<stop stop-color="#24F0AA"/>
<stop offset="1" stop-color="#7A6CDA"/>
</linearGradient>
</defs>
</svg>
