<svg width="18" height="16" viewBox="0 0 18 16" fill="none" xmlns="http://www.w3.org/2000/svg">
<path d="M17.3333 4.66667H9.83329C9.61228 4.66667 9.40032 4.75446 9.24404 4.91074C9.08776 5.06702 8.99996 5.27899 8.99996 5.5V10.5C8.99996 10.721 9.08776 10.933 9.24404 11.0893C9.40032 11.2455 9.61228 11.3333 9.83329 11.3333H17.3333V14.6667C17.3333 14.8877 17.2455 15.0996 17.0892 15.2559C16.9329 15.4122 16.721 15.5 16.5 15.5H1.49996C1.27895 15.5 1.06698 15.4122 0.910704 15.2559C0.754423 15.0996 0.666626 14.8877 0.666626 14.6667V1.33333C0.666626 1.11232 0.754423 0.900358 0.910704 0.744078C1.06698 0.587797 1.27895 0.5 1.49996 0.5H16.5C16.721 0.5 16.9329 0.587797 17.0892 0.744078C17.2455 0.900358 17.3333 1.11232 17.3333 1.33333V4.66667ZM11.5 7.16667H14V8.83333H11.5V7.16667Z" fill="white"/>
</svg>
