<svg width="20" height="20" viewBox="0 0 20 20" fill="none" xmlns="http://www.w3.org/2000/svg">
<g clip-path="url(#clip0_1_1947)">
<path d="M16.4542 15.8994C17.6977 14.7329 16.1027 11.0123 12.8916 7.5892C9.68051 4.16608 6.06933 2.33672 4.82581 3.50322C3.58229 4.66972 5.17733 8.39034 8.38843 11.8135C11.5995 15.2366 15.2107 17.0659 16.4542 15.8994Z" stroke="white" stroke-width="1.5" stroke-miterlimit="10" stroke-linecap="round" stroke-linejoin="round"/>
<path d="M16.4539 15.8976L14.8258 17.4248C13.5815 18.5915 9.97141 16.7624 6.76063 13.34C3.54845 9.91634 1.95279 6.19688 3.1965 5.02911L4.82464 3.50196" stroke="white" stroke-width="1.5" stroke-miterlimit="10" stroke-linecap="round" stroke-linejoin="round"/>
<path d="M12.7083 12.0652C12.5574 12.1551 12.4001 12.2078 12.2378 12.2212C12.0752 12.2355 11.9207 12.2295 11.7742 12.2031C11.6277 12.1768 11.4915 12.1377 11.3673 12.0863C11.243 12.0349 11.1455 11.9898 11.0752 11.9529C10.9939 11.9087 10.9425 11.8397 10.9224 11.7472L10.7936 11.233C10.7673 11.1285 10.7958 11.093 10.8801 11.1259C10.9448 11.1519 11.0298 11.1824 11.1353 11.2167C11.2408 11.2511 11.3541 11.2728 11.4734 11.2814C11.5927 11.2901 11.7137 11.2829 11.8358 11.2586C11.9579 11.2344 12.0649 11.1794 12.1571 11.0928C12.2826 10.9755 12.3377 10.8376 12.3223 10.679C12.307 10.5205 12.2246 10.3613 12.0735 10.2009C11.9525 10.0727 11.8381 9.98772 11.7291 9.94728C11.62 9.90684 11.5103 9.89125 11.4002 9.89971C11.2901 9.90816 11.1794 9.93197 11.0677 9.97193C10.9561 10.0119 10.8418 10.052 10.7247 10.0931C10.6076 10.1342 10.4846 10.1651 10.3555 10.1865C10.2263 10.208 10.0886 10.2039 9.94255 10.1725C9.79552 10.1417 9.64037 10.0769 9.4749 9.97646C9.31023 9.87627 9.1305 9.72287 8.9373 9.51668C8.76951 9.33801 8.62588 9.15288 8.507 8.96229C8.38813 8.77171 8.30172 8.58552 8.24676 8.4043C8.19201 8.22227 8.17172 8.04689 8.18668 7.87837C8.20164 7.70985 8.25717 7.55737 8.35421 7.42378L7.75376 6.78325C7.66799 6.69126 7.64708 6.62441 7.69206 6.58211L7.94075 6.3494C7.98798 6.30513 8.05488 6.32909 8.14087 6.42028L8.75483 7.07478C8.88893 7.00892 9.02435 6.9736 9.15988 6.96679C9.29623 6.96019 9.42563 6.96984 9.54867 6.99677C9.67172 7.0237 9.7845 7.05996 9.88782 7.10576C9.99115 7.15157 10.0743 7.19198 10.1382 7.22721C10.1714 7.24818 10.2031 7.27479 10.2325 7.30682C10.2627 7.33906 10.2821 7.38567 10.2908 7.44665L10.3392 7.93237C10.3436 8.03188 10.3114 8.06207 10.2435 8.02232C10.1946 7.99886 10.1329 7.97458 10.0586 7.94947C9.98421 7.92437 9.90425 7.90726 9.81833 7.89632C9.73322 7.88559 9.64481 7.89037 9.55493 7.91028C9.46505 7.93019 9.38325 7.9747 9.30975 8.04299C9.17481 8.16988 9.12171 8.32301 9.15123 8.50258C9.17973 8.68275 9.27243 8.85511 9.4273 9.02083C9.53452 9.13582 9.64119 9.21099 9.74549 9.2467C9.84979 9.28241 9.95412 9.29225 10.0581 9.27783C10.1614 9.26239 10.2678 9.23224 10.3757 9.18696C10.4844 9.1419 10.5971 9.09791 10.7142 9.05683C10.8313 9.01575 10.9574 8.98654 11.0917 8.96818C11.226 8.94982 11.3685 8.95869 11.5195 8.99397C11.6705 9.02926 11.8338 9.10234 12.0092 9.21404C12.1846 9.32573 12.3739 9.48859 12.5764 9.70504C12.7188 9.8562 12.8456 10.0204 12.9572 10.1961C13.0689 10.3718 13.1514 10.5467 13.2057 10.7208C13.26 10.8949 13.2814 11.0663 13.2694 11.2365C13.2583 11.4069 13.2022 11.5644 13.103 11.7095L13.7491 12.3985C13.8396 12.4952 13.8613 12.5657 13.8141 12.61L13.5654 12.8427C13.5204 12.885 13.4528 12.8574 13.362 12.7614L12.7083 12.0652Z" fill="white" stroke="white" stroke-width="0.2" stroke-miterlimit="10" stroke-linecap="round" stroke-linejoin="round"/>
</g>
<defs>
<clipPath id="clip0_1_1947">
<rect width="20" height="20" fill="white"/>
</clipPath>
</defs>
</svg>
