<svg width="50" height="53" viewBox="0 0 50 53" fill="none" xmlns="http://www.w3.org/2000/svg">
<path d="M42.276 15.0594C42.218 15.2154 42.2118 15.4285 42.2698 15.5829C42.8749 17.2293 43.1006 18.9205 43.0473 20.7059C43.0395 20.9994 43.0238 21.2959 43.0003 21.594C43.0003 21.5986 42.9987 21.6033 42.9987 21.6079C42.8702 22.8373 42.4156 25.1787 40.8134 27.6745C37.0353 33.0616 31.63 35.61 24.9 35.5914C17.8314 35.5729 12.2301 32.7357 8.45206 26.6845L8.44892 26.6799C7.0631 23.8319 6.8938 21.4395 6.87498 21.0828C6.87342 21.0519 6.87342 21.0364 6.87342 21.0364C6.77308 19.2171 7.0051 17.4456 7.58357 15.7111C7.6792 15.4285 7.60395 15.0609 7.51773 14.7567C6.45798 10.9758 6.19148 7.16099 7.06937 3.31528C7.22771 2.62645 7.54124 1.94535 7.90964 1.33528C8.61196 0.166126 9.74852 -0.258601 11.0748 0.153771C11.7614 0.366906 12.4731 0.652632 13.0343 1.08354C14.2038 1.98087 15.2996 2.9755 16.3907 3.96859C17.0005 4.5246 17.5414 5.15628 18.1747 5.81731C22.6708 4.35625 27.1904 4.34235 31.7335 5.8204C32.3841 5.14393 33.0111 4.49371 33.6366 3.84195C34.7371 2.70059 35.8878 1.61329 37.2783 0.817889C37.7925 0.524441 38.3553 0.281961 38.9244 0.121337C40.1236 -0.218445 41.1457 0.166126 41.8904 1.14995C42.5159 1.97624 42.8028 2.93844 43.0081 3.92535C43.4439 6.01191 43.4189 8.12165 43.2402 10.2283C43.1006 11.8701 42.867 13.501 42.276 15.0594Z" fill="white"/>
<path d="M47.7829 50.6033C46.9804 50.8179 46.0578 50.8592 45.2109 50.8116C43.4955 50.7155 41.8792 50.2635 40.4402 49.5826C38.4076 48.6202 36.4695 47.5422 34.4936 46.5104C34.3173 46.4185 34.1553 46.3105 33.9716 46.1984C33.9055 46.2784 33.8623 46.3146 33.8459 46.3564C33.0768 48.3501 31.2076 49.223 28.6443 48.786C27.2292 48.5449 26.0498 47.9695 24.9784 47.2453C24.516 46.9324 24.0552 46.6177 23.5723 46.2903C23.38 46.5559 23.2188 46.8149 23.0137 47.0519C22.1554 48.0511 20.928 48.5155 19.4812 48.269C18.5884 48.1169 17.7577 47.7152 16.9522 47.357C16.4776 47.1459 16.1016 46.8001 15.6272 46.4774C15.5207 46.6964 15.4466 46.8625 15.3607 47.0223C14.7019 48.2668 13.5504 49.0711 11.8798 49.4002C10.4852 49.6746 9.08301 49.6199 7.8283 49.1798C5.96975 48.5272 4.15396 47.7905 2.4125 46.9717C1.71091 46.6433 1.20258 46.0322 0.705687 45.4943C0.354752 45.1149 0.417337 44.6439 0.837894 44.2536C1.25838 43.8616 1.80205 43.7919 2.39258 43.926C2.56653 43.9649 2.72987 44.0265 2.89471 44.0846C4.55814 44.6683 6.20313 45.2855 7.89126 45.827C8.66056 46.0736 9.49585 46.2366 10.3264 46.3279C11.4315 46.4468 11.8714 46.1603 12.1872 45.2993C12.3845 44.7625 12.5028 44.1999 12.7958 43.695C13.4006 42.6587 14.8239 42.3951 15.9479 43.0707C16.2642 43.2612 16.5391 43.4895 16.8411 43.6944C17.5202 44.1541 18.1723 44.6424 18.8927 45.0608C20.0463 45.73 20.2975 45.6403 20.6464 44.5463C20.6567 44.515 20.6636 44.4838 20.6739 44.4525C21.2191 42.7995 22.7906 42.4026 24.3857 43.5142C24.5496 43.6289 24.7023 43.751 24.8679 43.8657C25.6892 44.4359 26.4598 45.0598 27.3509 45.5567C28.0179 45.9294 28.8086 46.2093 29.6002 46.3966C30.472 46.6009 30.9564 46.2696 31.023 45.5446C31.0626 45.1175 31.0093 44.6875 31.0423 44.2607C31.0803 43.7565 31.3147 43.3124 31.9822 43.1173C32.6464 42.9241 33.145 43.1548 33.6026 43.5091C35.9452 45.3262 38.6081 46.8104 41.5352 48.0037C42.9077 48.564 44.3592 48.9956 45.9453 49.0509C46.438 49.0675 46.964 49.0106 47.4393 48.8924C47.9622 48.7636 48.3733 47.9208 48.0234 47.7969C47.3436 47.5534 47.6728 47.1567 47.6968 46.828C47.7115 46.6301 47.9174 46.3331 48.1203 46.2746C48.3379 46.2121 48.7251 46.3173 48.9181 46.4531C50.6152 47.6649 50.0037 50.0103 47.7829 50.6033Z" fill="#EF127C"/>
</svg>
