<svg width="20" height="20" viewBox="0 0 20 20" fill="none" xmlns="http://www.w3.org/2000/svg">
<path d="M4.40505 12.646C4.19725 12.6226 4.0166 12.5796 3.86216 12.5168C3.70772 12.4541 3.57668 12.3858 3.46904 12.3109C3.3614 12.237 3.27435 12.1612 3.20789 12.0844C3.14144 12.0077 3.09276 11.9468 3.06094 11.8991C3.02537 11.8439 3.03754 11.7914 3.09651 11.7409L3.4082 11.4526C3.47091 11.3936 3.5252 11.3899 3.57294 11.4404C3.6085 11.4798 3.65811 11.5294 3.7227 11.5902C3.78728 11.651 3.86871 11.7091 3.96606 11.7634C4.06434 11.8186 4.17666 11.8663 4.30396 11.9075C4.43125 11.9487 4.57165 11.9693 4.72422 11.9693C4.93202 11.9693 5.09395 11.93 5.21188 11.8523C5.32982 11.7737 5.38785 11.666 5.38785 11.5294C5.38785 11.4198 5.35603 11.3328 5.29425 11.2682C5.23154 11.2036 5.14823 11.1503 5.04434 11.1063C4.94044 11.0632 4.82344 11.0267 4.6924 10.9977C4.56136 10.9687 4.42751 10.9378 4.28992 10.9069C4.15232 10.876 4.01847 10.8377 3.88743 10.7927C3.75639 10.7478 3.63846 10.687 3.53456 10.6102C3.43066 10.5335 3.34736 10.438 3.28465 10.3219C3.22193 10.2068 3.19105 10.0608 3.19105 9.8848C3.19105 9.73223 3.21725 9.58715 3.27061 9.45049C3.32302 9.31383 3.40071 9.19215 3.50274 9.08639C3.60476 8.98062 3.73206 8.89263 3.88463 8.82243C4.0372 8.75223 4.21129 8.7073 4.40785 8.68765V8.14102C4.40785 8.06239 4.44529 8.02402 4.51924 8.02402H4.93015C5.00877 8.02402 5.04808 8.06333 5.04808 8.14102V8.69888C5.22031 8.72602 5.36913 8.76721 5.49456 8.82243C5.61998 8.87766 5.72575 8.93662 5.81186 9.00121C5.89798 9.06579 5.96724 9.13038 6.02059 9.19496C6.07301 9.25955 6.11326 9.31383 6.14134 9.35689C6.15351 9.38029 6.15912 9.40556 6.15912 9.43364C6.15912 9.46079 6.13759 9.49074 6.09454 9.52163L5.73605 9.76218C5.65742 9.80898 5.60501 9.80898 5.57786 9.76218C5.55446 9.73129 5.51983 9.69385 5.4749 9.6508C5.42997 9.60774 5.37381 9.56562 5.30736 9.52444C5.2409 9.48325 5.15947 9.44768 5.06399 9.41867C4.96759 9.38965 4.85901 9.37467 4.73826 9.37467C4.51549 9.37467 4.3414 9.42148 4.21878 9.51601C4.09523 9.60961 4.03345 9.72755 4.03345 9.86889C4.03345 9.96717 4.06434 10.0458 4.12705 10.1066C4.18976 10.1675 4.27307 10.2161 4.37697 10.2536C4.48086 10.291 4.5988 10.3219 4.73265 10.3472C4.86556 10.3725 5.00035 10.4015 5.13794 10.4324C5.2746 10.4642 5.41032 10.5035 5.54323 10.5531C5.67614 10.6018 5.79502 10.6664 5.89891 10.7469C6.00281 10.8274 6.08611 10.9303 6.14883 11.0548C6.21154 11.1802 6.24243 11.3347 6.24243 11.5191C6.24243 11.6482 6.21903 11.7765 6.17223 11.9038C6.12543 12.0311 6.05335 12.1453 5.95788 12.2473C5.86147 12.3493 5.73886 12.4364 5.58816 12.5084C5.43746 12.5805 5.25775 12.6292 5.05089 12.6526V13.2404C5.05089 13.3228 5.01158 13.3639 4.93295 13.3639H4.52205C4.44717 13.3639 4.41066 13.3228 4.41066 13.2404V12.646H4.40505Z" fill="#EF127C"/>
<path d="M9.78688 12.646C9.57909 12.6226 9.39844 12.5796 9.244 12.5168C9.08956 12.4541 8.95852 12.3858 8.85088 12.3109C8.74323 12.237 8.65619 12.1612 8.58973 12.0844C8.52327 12.0077 8.4746 11.9468 8.44278 11.8991C8.40721 11.8439 8.41938 11.7914 8.47835 11.7409L8.79004 11.4526C8.85275 11.3936 8.90704 11.3899 8.95477 11.4404C8.99034 11.4798 9.03995 11.5294 9.10453 11.5902C9.16912 11.651 9.25055 11.7091 9.34789 11.7634C9.44618 11.8186 9.5585 11.8663 9.68579 11.9075C9.81309 11.9487 9.95349 11.9693 10.1061 11.9693C10.3139 11.9693 10.4758 11.93 10.5937 11.8523C10.7117 11.7737 10.7697 11.666 10.7697 11.5294C10.7697 11.4198 10.7379 11.3328 10.6761 11.2682C10.6134 11.2036 10.5301 11.1503 10.4262 11.1063C10.3223 11.0632 10.2053 11.0267 10.0742 10.9977C9.9432 10.9687 9.80935 10.9378 9.67175 10.9069C9.53416 10.876 9.40031 10.8377 9.26927 10.7927C9.13823 10.7478 9.02029 10.687 8.9164 10.6102C8.8125 10.5335 8.72919 10.438 8.66648 10.3219C8.60377 10.2068 8.57288 10.0608 8.57288 9.8848C8.57288 9.73223 8.59909 9.58715 8.65244 9.45049C8.70486 9.31383 8.78255 9.19215 8.88457 9.08639C8.9866 8.98062 9.11389 8.89263 9.26646 8.82243C9.41903 8.75223 9.59313 8.7073 9.78969 8.68765V8.14102C9.78969 8.06239 9.82713 8.02402 9.90107 8.02402H10.312C10.3906 8.02402 10.4299 8.06333 10.4299 8.14102V8.69888C10.6021 8.72602 10.751 8.76721 10.8764 8.82243C11.0018 8.87766 11.1076 8.93662 11.1937 9.00121C11.2798 9.06579 11.3491 9.13038 11.4024 9.19496C11.4548 9.25955 11.4951 9.31383 11.5232 9.35689C11.5353 9.38029 11.541 9.40556 11.541 9.43364C11.541 9.46079 11.5194 9.49074 11.4764 9.52163L11.1179 9.76218C11.0393 9.80898 10.9868 9.80898 10.9597 9.76218C10.9363 9.73129 10.9017 9.69385 10.8567 9.6508C10.8118 9.60774 10.7556 9.56562 10.6892 9.52444C10.6227 9.48325 10.5413 9.44768 10.4458 9.41867C10.3494 9.38965 10.2408 9.37467 10.1201 9.37467C9.89733 9.37467 9.72323 9.42148 9.60062 9.51601C9.47706 9.60961 9.41529 9.72755 9.41529 9.86889C9.41529 9.96717 9.44618 10.0458 9.50889 10.1066C9.5716 10.1675 9.6549 10.2161 9.7588 10.2536C9.8627 10.291 9.98064 10.3219 10.1145 10.3472C10.2474 10.3725 10.3831 10.4015 10.5198 10.4324C10.6564 10.4642 10.7922 10.5035 10.9251 10.5531C11.058 10.6018 11.1769 10.6664 11.2807 10.7469C11.3846 10.8274 11.4679 10.9303 11.5307 11.0548C11.5934 11.1802 11.6243 11.3347 11.6243 11.5191C11.6243 11.6482 11.6009 11.7765 11.5541 11.9038C11.5073 12.0311 11.4352 12.1453 11.3397 12.2473C11.2433 12.3493 11.1207 12.4364 10.97 12.5084C10.8193 12.5805 10.6396 12.6292 10.4327 12.6526V13.2404C10.4327 13.3228 10.3934 13.3639 10.3148 13.3639H9.90388C9.829 13.3639 9.7925 13.3228 9.7925 13.2404V12.646H9.78688Z" fill="#EF127C"/>
<path d="M15.1697 12.646C14.9619 12.6226 14.7813 12.5796 14.6268 12.5168C14.4724 12.4541 14.3413 12.3858 14.2337 12.3109C14.126 12.237 14.039 12.1612 13.9725 12.0844C13.9061 12.0077 13.8574 11.9468 13.8256 11.8991C13.79 11.8439 13.8022 11.7914 13.8612 11.7409L14.1728 11.4526C14.2356 11.3936 14.2898 11.3899 14.3376 11.4404C14.3732 11.4798 14.4228 11.5294 14.4873 11.5902C14.5519 11.651 14.6334 11.7091 14.7307 11.7634C14.829 11.8186 14.9413 11.8663 15.0686 11.9075C15.1959 11.9487 15.3363 11.9693 15.4889 11.9693C15.6967 11.9693 15.8586 11.93 15.9765 11.8523C16.0945 11.7737 16.1525 11.666 16.1525 11.5294C16.1525 11.4198 16.1207 11.3328 16.0589 11.2682C15.9962 11.2036 15.9129 11.1503 15.809 11.1063C15.7051 11.0632 15.5881 11.0267 15.457 10.9977C15.326 10.9687 15.1922 10.9378 15.0546 10.9069C14.917 10.876 14.7831 10.8377 14.6521 10.7927C14.521 10.7478 14.4031 10.687 14.2992 10.6102C14.1953 10.5335 14.112 10.438 14.0493 10.3219C13.9866 10.2068 13.9557 10.0608 13.9557 9.8848C13.9557 9.73223 13.9819 9.58715 14.0353 9.45049C14.0877 9.31383 14.1654 9.19215 14.2674 9.08639C14.3694 8.98062 14.4967 8.89263 14.6493 8.82243C14.8018 8.75223 14.9759 8.7073 15.1725 8.68765V8.14102C15.1725 8.06239 15.2099 8.02402 15.2839 8.02402H15.6948C15.7734 8.02402 15.8127 8.06333 15.8127 8.14102V8.69888C15.985 8.72602 16.1338 8.76721 16.2592 8.82243C16.3846 8.87766 16.4904 8.93662 16.5765 9.00121C16.6626 9.06579 16.7319 9.13038 16.7852 9.19496C16.8377 9.25955 16.8779 9.31383 16.906 9.35689C16.9182 9.38029 16.9238 9.40556 16.9238 9.43364C16.9238 9.46079 16.9022 9.49074 16.8592 9.52163L16.5007 9.76218C16.4221 9.80898 16.3697 9.80898 16.3425 9.76218C16.3191 9.73129 16.2845 9.69385 16.2395 9.6508C16.1946 9.60774 16.1385 9.56562 16.072 9.52444C16.0055 9.48325 15.9241 9.44768 15.8286 9.41867C15.7322 9.38965 15.6237 9.37467 15.5029 9.37467C15.2801 9.37467 15.106 9.42148 14.9834 9.51601C14.8599 9.60961 14.7981 9.72755 14.7981 9.86889C14.7981 9.96717 14.829 10.0458 14.8917 10.1066C14.9544 10.1675 15.0377 10.2161 15.1416 10.2536C15.2455 10.291 15.3634 10.3219 15.4973 10.3472C15.6302 10.3725 15.7659 10.4015 15.9026 10.4324C16.0392 10.4642 16.175 10.5035 16.3079 10.5531C16.4408 10.6018 16.5597 10.6664 16.6636 10.7469C16.7675 10.8274 16.8508 10.9303 16.9135 11.0548C16.9762 11.1802 17.0071 11.3347 17.0071 11.5191C17.0071 11.6482 16.9837 11.7765 16.9369 11.9038C16.8901 12.0311 16.818 12.1453 16.7225 12.2473C16.6261 12.3493 16.5035 12.4364 16.3528 12.5084C16.2021 12.5805 16.0224 12.6292 15.8155 12.6526V13.2404C15.8155 13.3228 15.7762 13.3639 15.6976 13.3639H15.2867C15.2118 13.3639 15.1753 13.3228 15.1753 13.2404V12.646H15.1697Z" fill="#EF127C"/>
<path d="M19.0112 5.54883H0.991211V15.8393H19.0112V5.54883Z" stroke="#EF127C" stroke-width="1.3" stroke-miterlimit="10" stroke-linecap="round" stroke-linejoin="round"/>
<path d="M7.36865 5.54883V8.02456" stroke="#EF127C" stroke-width="1.3" stroke-miterlimit="10" stroke-linecap="round" stroke-linejoin="round"/>
<path d="M12.7485 5.54883V8.02456" stroke="#EF127C" stroke-width="1.3" stroke-miterlimit="10" stroke-linecap="round" stroke-linejoin="round"/>
<path d="M7.36865 13.3641V15.8399" stroke="#EF127C" stroke-width="1.3" stroke-miterlimit="10" stroke-linecap="round" stroke-linejoin="round"/>
<path d="M12.7485 13.3641V15.8399" stroke="#EF127C" stroke-width="1.3" stroke-miterlimit="10" stroke-linecap="round" stroke-linejoin="round"/>
</svg>
