<svg width="26" height="26" viewBox="0 0 26 26" fill="none" xmlns="http://www.w3.org/2000/svg">
<path d="M13 0.5C14.6415 0.5 16.267 0.823322 17.7835 1.45151C19.3001 2.07969 20.6781 3.00043 21.8388 4.16117C22.9996 5.3219 23.9203 6.69989 24.5485 8.21646C25.1767 9.73303 25.5 11.3585 25.5 13C25.5 16.3152 24.183 19.4946 21.8388 21.8388C19.4946 24.183 16.3152 25.5 13 25.5C11.3585 25.5 9.73303 25.1767 8.21646 24.5485C6.69989 23.9203 5.3219 22.9996 4.16117 21.8388C1.81696 19.4946 0.5 16.3152 0.5 13C0.5 9.68479 1.81696 6.50537 4.16117 4.16117C6.50537 1.81696 9.68479 0.5 13 0.5ZM13 3C10.3478 3 7.8043 4.05357 5.92893 5.92893C4.05357 7.8043 3 10.3478 3 13C3 15.6522 4.05357 18.1957 5.92893 20.0711C7.8043 21.9464 10.3478 23 13 23C15.6522 23 18.1957 21.9464 20.0711 20.0711C21.9464 18.1957 23 15.6522 23 13C23 10.3478 21.9464 7.8043 20.0711 5.92893C18.1957 4.05357 15.6522 3 13 3ZM13 11.125C13.4973 11.125 13.9742 11.3225 14.3258 11.6742C14.6775 12.0258 14.875 12.5027 14.875 13C14.875 13.4973 14.6775 13.9742 14.3258 14.3258C13.9742 14.6775 13.4973 14.875 13 14.875C12.5027 14.875 12.0258 14.6775 11.6742 14.3258C11.3225 13.9742 11.125 13.4973 11.125 13C11.125 12.5027 11.3225 12.0258 11.6742 11.6742C12.0258 11.3225 12.5027 11.125 13 11.125ZM7.375 11.125C7.87228 11.125 8.34919 11.3225 8.70083 11.6742C9.05246 12.0258 9.25 12.5027 9.25 13C9.25 13.4973 9.05246 13.9742 8.70083 14.3258C8.34919 14.6775 7.87228 14.875 7.375 14.875C6.87772 14.875 6.40081 14.6775 6.04917 14.3258C5.69754 13.9742 5.5 13.4973 5.5 13C5.5 12.5027 5.69754 12.0258 6.04917 11.6742C6.40081 11.3225 6.87772 11.125 7.375 11.125ZM18.625 11.125C19.1223 11.125 19.5992 11.3225 19.9508 11.6742C20.3025 12.0258 20.5 12.5027 20.5 13C20.5 13.4973 20.3025 13.9742 19.9508 14.3258C19.5992 14.6775 19.1223 14.875 18.625 14.875C18.1277 14.875 17.6508 14.6775 17.2992 14.3258C16.9475 13.9742 16.75 13.4973 16.75 13C16.75 12.5027 16.9475 12.0258 17.2992 11.6742C17.6508 11.3225 18.1277 11.125 18.625 11.125Z" fill="white"/>
</svg>
