<svg width="19" height="20" viewBox="0 0 19 20" fill="none" xmlns="http://www.w3.org/2000/svg">
<path d="M1.92498 14.8539C1.68713 14.0129 1.44146 13.232 1.24821 12.4379C0.894571 10.9881 0.745135 9.51253 0.795208 8.01973C0.917261 4.33544 3.60869 1.05878 7.19753 0.224753C11.8903 -0.865902 16.4689 2.11971 17.3882 6.86492C17.7011 8.48056 17.5674 10.0884 17.2513 11.679C17.0596 12.646 16.7451 13.588 16.4853 14.5418C16.4618 14.6278 16.4384 14.7139 16.4 14.8539C16.8288 14.8539 17.2278 14.8508 17.6268 14.8547C18.1377 14.8602 18.3372 15.0519 18.3388 15.5636C18.3443 16.8021 18.3443 18.0406 18.3388 19.2791C18.3364 19.7947 18.1401 19.9919 17.6315 19.9935C16.0018 19.9974 14.3721 20.0029 12.7431 19.9919C11.4976 19.9841 10.5884 19.0961 10.572 17.856C10.561 17.0626 10.5712 16.2654 10.6416 15.4759C10.6729 15.127 10.845 14.7757 11.0109 14.4557C11.9599 12.6327 12.4474 10.6955 12.5139 8.64486C12.578 6.64741 11.122 5.0615 9.20358 5.05133C7.31175 5.04194 5.78218 6.64898 5.8299 8.612C5.87841 10.622 6.33611 12.5341 7.27342 14.3172C7.62862 14.9932 7.81327 15.6911 7.78275 16.4547C7.76398 16.9367 7.7898 17.4194 7.77258 17.9013C7.7319 19.0828 6.85014 19.9747 5.67108 19.9888C4.00223 20.0083 2.33339 19.9974 0.66533 19.9927C0.222496 19.9911 0.00890321 19.7861 0.00577364 19.3511C-0.00205029 18.0602 -0.00205029 16.77 0.00655603 15.4791C0.0096856 15.0667 0.225626 14.8657 0.644206 14.8563C1.06044 14.8469 1.47589 14.8539 1.92498 14.8539ZM17.1863 16.004C16.6535 16.004 16.1481 16.0095 15.6427 16.0025C15.0559 15.9947 14.811 15.6348 15.0402 15.0926C15.7311 13.4613 16.17 11.7666 16.3468 10.0054C16.4728 8.75283 16.4532 7.51117 16.0652 6.29221C14.9479 2.78396 11.532 0.64881 7.94862 1.23326C4.42551 1.80753 1.83501 4.97701 1.91638 8.61748C1.96567 10.8285 2.40146 12.959 3.26835 14.9979C3.54766 15.6535 3.31608 16.0025 2.60645 16.0048C2.12919 16.0064 1.65114 16.0048 1.1598 16.0048C1.1598 16.9766 1.1598 17.8943 1.1598 18.8441C1.30611 18.8441 1.4219 18.8441 1.53692 18.8441C2.86698 18.8441 4.19627 18.8465 5.52633 18.8433C6.2477 18.8418 6.63264 18.4631 6.64985 17.737C6.65924 17.3591 6.6389 16.9805 6.65533 16.6034C6.68349 15.9485 6.51997 15.3562 6.22188 14.7679C5.16017 12.675 4.61015 10.453 4.72047 8.09719C4.82609 5.85407 6.8165 3.95364 9.0604 3.902C11.5774 3.84488 13.6288 5.84546 13.6437 8.38589C13.657 10.683 13.1195 12.8502 12.064 14.8876C11.8442 15.3116 11.6924 15.7466 11.6924 16.2278C11.6924 16.7231 11.6853 17.2183 11.6939 17.7136C11.7065 18.4647 12.0883 18.8418 12.8339 18.8426C14.1506 18.8449 15.4674 18.8433 16.7842 18.8426C16.9109 18.8426 17.0377 18.8316 17.1871 18.8254C17.1863 17.8802 17.1863 16.9625 17.1863 16.004ZM13.9089 15.1489C13.8713 15.1489 13.8338 15.1442 13.7954 15.134C13.5662 15.0714 13.4308 14.8351 13.4934 14.6059L13.7156 13.7899C13.7735 13.5786 13.8322 13.3705 13.8909 13.1663C13.9566 12.9378 14.1952 12.8064 14.4237 12.8721C14.6522 12.9378 14.7836 13.1765 14.7179 13.4049C14.66 13.6044 14.6021 13.8087 14.5458 14.0152L14.3236 14.8312C14.2719 15.0229 14.0982 15.1489 13.9089 15.1489ZM15.4533 10.2456C15.5222 9.72221 15.5558 9.24261 15.5558 8.78022C15.5558 8.2388 15.5097 7.73729 15.415 7.24673C15.3939 7.13876 15.3704 7.03079 15.3446 6.92594C15.2882 6.69514 15.0559 6.55353 14.8243 6.60986C14.5935 6.66619 14.4519 6.89934 14.5082 7.13015C14.5309 7.22247 14.5512 7.31636 14.57 7.41103C14.6545 7.84682 14.6952 8.29513 14.6952 8.781C14.6952 9.20505 14.6639 9.64789 14.5997 10.1345C14.5684 10.37 14.7343 10.586 14.9706 10.6173C14.9894 10.6196 15.0089 10.6212 15.0269 10.6212C15.2397 10.6204 15.4244 10.4624 15.4533 10.2456ZM3.36771 10.6102C3.604 10.5828 3.77299 10.3693 3.74561 10.133C3.68615 9.61737 3.65563 9.09082 3.65563 8.56897C3.65563 8.41718 3.65798 8.26462 3.66346 8.1144C3.67441 7.77953 3.71901 7.44232 3.79568 7.11294C3.84967 6.88135 3.70493 6.65054 3.47334 6.59656C3.24175 6.54257 3.01094 6.68731 2.95696 6.9189C2.86777 7.30306 2.81613 7.69582 2.80361 8.08623C2.79813 8.24584 2.79579 8.40858 2.79579 8.56975C2.79579 9.12447 2.82786 9.68466 2.89124 10.2331C2.91627 10.4522 3.10248 10.6141 3.31842 10.6141C3.33485 10.6134 3.35128 10.6126 3.36771 10.6102ZM13.7196 4.57642C13.8909 4.41212 13.8964 4.13906 13.7321 3.96772C13.3941 3.61564 13.013 3.30112 12.5999 3.03276C12.0531 2.67755 11.46 2.40998 10.8372 2.23785C10.608 2.17448 10.3709 2.30905 10.3075 2.53751C10.2442 2.76675 10.3787 3.00381 10.6072 3.06719C11.1447 3.21584 11.6572 3.44743 12.1305 3.75413C12.4881 3.9865 12.8182 4.25799 13.1108 4.56312C13.1953 4.65075 13.308 4.69534 13.4215 4.69534C13.5294 4.69613 13.6366 4.65622 13.7196 4.57642ZM5.18991 4.55138C5.88389 3.82611 6.74765 3.31051 7.68809 3.06014C7.91811 2.99912 8.05424 2.76362 7.99322 2.53359C7.93219 2.30357 7.69591 2.16743 7.46667 2.22846C6.37367 2.51951 5.37064 3.11726 4.5679 3.95677C4.4036 4.12811 4.40986 4.40116 4.5812 4.56547C4.66492 4.64527 4.77133 4.68517 4.87851 4.68517C4.99196 4.68439 5.10541 4.63979 5.18991 4.55138ZM4.53896 15.1325C4.76741 15.0675 4.90042 14.8305 4.83627 14.6012L4.68761 14.0739C4.61015 13.8 4.53191 13.5332 4.45524 13.2696L4.42551 13.1687C4.35901 12.9402 4.12038 12.8095 3.89192 12.876C3.66346 12.9425 3.5328 13.182 3.5993 13.4096L3.62903 13.5106C3.70571 13.7719 3.78238 14.0363 3.85906 14.3078L4.00771 14.8352C4.06091 15.0245 4.23382 15.1489 4.4216 15.1489C4.46072 15.1489 4.49984 15.1434 4.53896 15.1325Z" fill="white"/>
</svg>
