<svg width="20" height="20" viewBox="0 0 20 20" fill="none" xmlns="http://www.w3.org/2000/svg">
<path d="M12.8558 9.09628H1.29541V16.9292H12.8558V9.09628Z" stroke="white" stroke-width="1.5" stroke-miterlimit="10" stroke-linecap="round" stroke-linejoin="round"/>
<path d="M12.8561 14.2109H15.5764V11.3822V6.37708H6.73544H4.01514V9.09738" stroke="white" stroke-width="1.5" stroke-miterlimit="10" stroke-linecap="round" stroke-linejoin="round"/>
<path d="M6.73486 6.37661V3.54883H18.2952V11.3817H15.5759" stroke="white" stroke-width="1.5" stroke-miterlimit="10" stroke-linecap="round" stroke-linejoin="round"/>
<path d="M1.29541 12.4537C3.1911 12.6826 5.44258 13.1542 7.86547 14.0881C9.81675 14.8396 11.479 15.7374 12.8558 16.625" stroke="white" stroke-width="1.5" stroke-miterlimit="10" stroke-linecap="round" stroke-linejoin="round"/>
<path d="M10.2049 12.5487C10.7458 12.5487 11.1843 12.1102 11.1843 11.5693C11.1843 11.0284 10.7458 10.59 10.2049 10.59C9.66406 10.59 9.22559 11.0284 9.22559 11.5693C9.22559 12.1102 9.66406 12.5487 10.2049 12.5487Z" fill="white"/>
</svg>
