<svg width="51" height="51" viewBox="0 0 51 51" fill="none" xmlns="http://www.w3.org/2000/svg">
<g filter="url(#filter0_ii_1_1933)">
<rect width="51" height="51" rx="10" fill="url(#paint0_linear_1_1933)"/>
</g>
<path d="M34.3332 22.6667H26.8332C26.6122 22.6667 26.4002 22.7545 26.2439 22.9107C26.0876 23.067 25.9998 23.279 25.9998 23.5V28.5C25.9998 28.721 26.0876 28.933 26.2439 29.0893C26.4002 29.2455 26.6122 29.3333 26.8332 29.3333H34.3332V32.6667C34.3332 32.8877 34.2454 33.0996 34.0891 33.2559C33.9328 33.4122 33.7208 33.5 33.4998 33.5H18.4998C18.2788 33.5 18.0669 33.4122 17.9106 33.2559C17.7543 33.0996 17.6665 32.8877 17.6665 32.6667V19.3333C17.6665 19.1123 17.7543 18.9004 17.9106 18.7441C18.0669 18.5878 18.2788 18.5 18.4998 18.5H33.4998C33.7208 18.5 33.9328 18.5878 34.0891 18.7441C34.2454 18.9004 34.3332 19.1123 34.3332 19.3333V22.6667ZM28.4998 25.1667H30.9998V26.8333H28.4998V25.1667Z" fill="white"/>
<defs>
<filter id="filter0_ii_1_1933" x="0" y="-2" width="51" height="53" filterUnits="userSpaceOnUse" color-interpolation-filters="sRGB">
<feFlood flood-opacity="0" result="BackgroundImageFix"/>
<feBlend mode="normal" in="SourceGraphic" in2="BackgroundImageFix" result="shape"/>
<feColorMatrix in="SourceAlpha" type="matrix" values="0 0 0 0 0 0 0 0 0 0 0 0 0 0 0 0 0 0 127 0" result="hardAlpha"/>
<feOffset dy="3"/>
<feComposite in2="hardAlpha" operator="arithmetic" k2="-1" k3="1"/>
<feColorMatrix type="matrix" values="0 0 0 0 1 0 0 0 0 1 0 0 0 0 1 0 0 0 0.3 0"/>
<feBlend mode="normal" in2="shape" result="effect1_innerShadow_1_1933"/>
<feColorMatrix in="SourceAlpha" type="matrix" values="0 0 0 0 0 0 0 0 0 0 0 0 0 0 0 0 0 0 127 0" result="hardAlpha"/>
<feOffset dy="-2"/>
<feGaussianBlur stdDeviation="5"/>
<feComposite in2="hardAlpha" operator="arithmetic" k2="-1" k3="1"/>
<feColorMatrix type="matrix" values="0 0 0 0 1 0 0 0 0 1 0 0 0 0 1 0 0 0 0.4 0"/>
<feBlend mode="normal" in2="effect1_innerShadow_1_1933" result="effect2_innerShadow_1_1933"/>
</filter>
<linearGradient id="paint0_linear_1_1933" x1="28.0172" y1="51" x2="28.0172" y2="-11.9531" gradientUnits="userSpaceOnUse">
<stop stop-color="#8D0AF4"/>
<stop offset="1" stop-color="#EF127C"/>
</linearGradient>
</defs>
</svg>
